<svg data-v-2cb57da0="" version="1.0" xmlns="http://www.w3.org/2000/svg" xmlns:xlink="http://www.w3.org/1999/xlink" width="100%" height="100%" viewBox="0 0 340.000000 250.000000" preserveAspectRatio="xMidYMid meet" color-interpolation-filters="sRGB" style="margin: auto;"><rect data-v-2cb57da0="" x="0" y="0" width="100%" height="100%" fill="#020e27" fill-opacity="0" class="background"></rect> <rect data-v-2cb57da0="" x="0" y="0" width="100%" height="100%" fill="url(#watermark)" fill-opacity="1" class="watermarklayer"></rect> <g data-v-2cb57da0="" fill="#00c9ff" class="icon-text-wrapper icon-svg-group iconsvg" transform="translate(30.199996948242188,15.78125)"><g class="iconsvg-imagesvg" transform="matrix(1,0,0,1,0,0)" mask="url(#8bd1ed03-f29f-42a4-9284-47985f6c6b5f)" opacity="1"><g><rect fill="#00c9ff" fill-opacity="0" stroke-width="2" x="0" y="0" width="279.6000000000002" height="218.43750000000014" class="image-rect"></rect> <svg filter="url(#colors4641392184)" x="0" y="0" width="279.6000000000002" height="218.43750000000014" filtersec="colorsf4217644396" class="image-svg-svg primary" style="overflow: visible;"><svg xmlns="http://www.w3.org/2000/svg" data-name="Layer 1" viewBox="-0.00008227439684560522 14.00001335144043 128.0000762939453 99.9999771118164" x="0px" y="0px"><title>miscellaneous101 expandline</title><path d="M127.76367,51.85365a1.99829,1.99829,0,0,0-1.22021-.98177A62.64647,62.64647,0,0,0,102.82379,49.542a65.46211,65.46211,0,0,0-.02692-25.00421,1.99967,1.99967,0,0,0-2.48291-1.48786A64.16524,64.16524,0,0,0,78.01385,35.15368,65.12777,65.12777,0,0,0,65.44482,14.592a2.05914,2.05914,0,0,0-2.88965,0,65.12777,65.12777,0,0,0-12.569,20.56169A64.1647,64.1647,0,0,0,27.686,23.04992a1.99967,1.99967,0,0,0-2.48291,1.48786,65.46209,65.46209,0,0,0-.02673,25.00513,62.66171,62.66171,0,0,0-23.71985,1.329A2.00055,2.00055,0,0,0,.09766,53.41476c.27783.8567,7.00293,21.10575,24.08057,30.32473,7.63818,4.12346,15.94238,5.283,22.86816,5.283a61.977,61.977,0,0,0,15.49707-1.90788,5.48508,5.48508,0,0,1,2.91309,0,61.965,61.965,0,0,0,15.49707,1.90788c6.9248,0,15.231-1.15958,22.86816-5.283,17.07764-9.219,23.80273-29.468,24.08057-30.32473A2.00176,2.00176,0,0,0,127.76367,51.85365ZM99.27734,27.59834a62.52053,62.52053,0,0,1-.75623,22.76806,40.66245,40.66245,0,0,0-18.5564,9.73911A41.73334,41.73334,0,0,0,81,50.98718a43.81285,43.81285,0,0,0-1.63721-11.63454A61.20773,61.20773,0,0,1,99.27734,27.59834Zm-70.55469,0a61.20773,61.20773,0,0,1,19.91455,11.7543A43.81285,43.81285,0,0,0,47,50.98718a41.90643,41.90643,0,0,0,1.024,9.11058A41.99971,41.99971,0,0,0,39.82178,54.247,42.186,42.186,0,0,0,29.47906,50.3672,62.52032,62.52032,0,0,1,28.72266,27.59834Zm-2.645,52.6204C13.46045,73.40688,6.81152,59.46856,4.67773,54.22946a59.70711,59.70711,0,0,1,21.55505-.429A43.58342,43.58342,0,0,0,30.521,63.72c6.62946,11.1489,17.78381,17.52866,24.971,20.68213C48.46515,85.36268,36.43829,85.81023,26.07764,80.21874ZM33.9585,61.67437a38.02878,38.02878,0,0,1-3.15576-6.80631,36.84563,36.84563,0,0,1,7.11963,2.89972A42.35511,42.35511,0,0,1,51.12708,69.413a60.67882,60.67882,0,0,0,6.93274,11.70113C51.45117,78.31673,40.27686,72.3,33.9585,61.67437ZM61.66663,79.201C57.40021,73.63273,51,63.24452,51,50.98718a38.28587,38.28587,0,0,1,.938-8.26511,37.536,37.536,0,0,1,4.10345,5.58055C62.44434,59.06966,62.3606,72.05862,61.66663,79.201ZM64,57.01266A43.92265,43.92265,0,0,0,59.479,46.257a43.11266,43.11266,0,0,0-6.27576-8.094A62.56992,62.56992,0,0,1,64.002,19.02028,62.29585,62.29585,0,0,1,74.80127,38.15839,43.11331,43.11331,0,0,0,68.521,46.257,43.92265,43.92265,0,0,0,64,57.01266Zm7.9585-8.71a37.53862,37.53862,0,0,1,4.10626-5.58385A38.39289,38.39289,0,0,1,77,50.98718a41.05678,41.05678,0,0,1-3.67291,16.42A65.86936,65.86936,0,0,0,66.324,79.10738C65.63867,71.94521,65.58411,59.02187,71.9585,48.30263Zm18.11914,9.46516a36.73916,36.73916,0,0,1,7.11871-2.8971,38.02228,38.02228,0,0,1-3.15485,6.80368C87.681,72.37078,76.3996,78.397,69.80884,81.16963,72.73553,74.85244,79.17407,63.65452,90.07764,57.76779Zm11.84473,22.451C91.58734,85.79655,79.55273,85.355,72.51727,84.398,79.70483,81.24312,90.85236,74.86422,97.479,63.72a43.57945,43.57945,0,0,0,4.28668-9.91405,59.95733,59.95733,0,0,1,21.55511.42643C121.18652,59.47344,114.5376,73.40786,101.92236,80.21874Z"></path><path d="M109.01318,90.00333a2.00034,2.00034,0,0,0-.20312,3.99552c1.86133.09473,6.18994.68866,6.18994,4.15471,0,4.59726-17.37549,11.32024-45.67334,11.82334-1.87891.03418-8.12793.03907-9.5166.01856C30.80811,109.5871,13,102.82309,13,98.15356c0-3.46606,4.32861-4.06,6.18994-4.15471a2.00034,2.00034,0,0,0-.20312-3.99552C12.82666,90.31592,9,93.43905,9,98.15356c0,9.93206,25.53223,15.48765,50.75391,15.84327.60352.00781,8.50928.001,9.644-.01856C94.04688,113.53867,119,107.96257,119,98.15356,119,93.43905,115.17334,90.31592,109.01318,90.00333Z"></path><path d="M38.668,96.00049a2.00075,2.00075,0,0,0-.17969-3.99747C33.70459,92.21891,32,94.7657,32,97.078c0,8.31339,26.55908,8.88388,29.58887,8.922.32178.00391,1.04932.00586,1.88379.00586,1.32568,0,2.92236-.00488,3.59375-.01563C70.02783,105.94329,96,105.29761,96,97.078c0-2.31227-1.70459-4.85906-6.48828-5.075a2.00075,2.00075,0,0,0-.17969,3.99747c1.32568.05958,2.668.44938,2.68164.98275-.54346,1.36572-8.51221,4.74674-25.01025,5.00562-1.04346.01758-4.57275.02051-5.36621.00977C45.81836,101.80225,36.66553,98.67619,36,97.078,36,96.44987,37.34229,96.06006,38.668,96.00049Z"></path><path d="M74,94.00178a2.00008,2.00008,0,0,0-3.80859-.85481A17.63879,17.63879,0,0,1,64,94.00178a17.63879,17.63879,0,0,1-6.19141-.85481A2.00008,2.00008,0,0,0,54,94.00178c0,3.48162,6.26514,4.00132,10,4.00132S74,97.4834,74,94.00178Z"></path></svg></svg> <defs><filter id="colors4641392184"><feColorMatrix type="matrix" values="0 0 0 0 0  0 0 0 0 0.78515625  0 0 0 0 0.99609375  0 0 0 1 0" class="icon-fecolormatrix"></feColorMatrix></filter> <filter id="colorsf4217644396"><feColorMatrix type="matrix" values="0 0 0 0 0.99609375  0 0 0 0 0.99609375  0 0 0 0 0.99609375  0 0 0 1 0" class="icon-fecolormatrix"></feColorMatrix></filter> <filter id="colorsb2393678577"><feColorMatrix type="matrix" values="0 0 0 0 0  0 0 0 0 0  0 0 0 0 0  0 0 0 1 0" class="icon-fecolormatrix"></feColorMatrix></filter></defs></g><rect v-gra="id" width="291.6000061035156" height="230.4375" transform="translate(-6, -6)" style="pointer-events:none;" fill="url(#hUeYHwQWQeaXkMef5UJev)"></rect></g> <g transform="translate(99.80000305175781,71.4375)"><g data-gra="path-name" fill-rule="" class="tp-name iconsvg-namesvg" fill="url(#c84c56ec-05e1-4ee4-9af1-899a6a04a06f)" opacity="1" transform="matrix(1,0,0,1,0,0)"><g transform="scale(1)"><g><path d="" transform="translate(0, 0)"></path></g> <!----> <!----> <!----> <!----> <!----> <!----> <g data-gra="path-name-1" fill="url(#31cbc343-00e2-4c16-9659-2cdc9e485498)" transform="translate(3,0)"><g transform="scale(1)"><path d="" transform="translate(0, 0)"></path></g></g></g></g> <!----></g></g><defs v-gra="od"><linearGradient x1="0" y1="1" x2="0" y2="0" id="c84c56ec-05e1-4ee4-9af1-899a6a04a06f"><stop offset="0%" stop-color="#b722ff"></stop><stop offset="100%" stop-color="#22d4fe"></stop></linearGradient><filter id="42443b3f1de60f6b6fd3b6a9844b4764" filterUnits="userSpaceOnUse"><feColorMatrix type="matrix" values="0 0 0 0 0.99609375  0 0 0 0 0.99609375  0 0 0 0 0.99609375  0 0 0 1 0"></feColorMatrix></filter><linearGradient x1="0" y1="1" x2="0" y2="0" id="31cbc343-00e2-4c16-9659-2cdc9e485498"><stop offset="0%" stop-color="#b722ff"></stop><stop offset="100%" stop-color="#22d4fe"></stop></linearGradient><filter id="42443b3f1de60f6b6fd3b6a9844b4764" filterUnits="userSpaceOnUse"><feColorMatrix type="matrix" values="0 0 0 0 0.99609375  0 0 0 0 0.99609375  0 0 0 0 0.99609375  0 0 0 1 0"></feColorMatrix></filter></defs><defs v-gra="id"><filter id="3e102d59-19b0-44ee-a68c-bc146676fee7" filterUnits="userSpaceOnUse"><feColorMatrix type="matrix" values="0 0 0 0 0.99609375  0 0 0 0 0.99609375  0 0 0 0 0.99609375  0 0 0 1 0"></feColorMatrix></filter><linearGradient x1="0" y1="1" x2="0" y2="0" id="hUeYHwQWQeaXkMef5UJev"><stop offset="0%" stop-color="#00f2fe"></stop><stop offset="100%" stop-color="#4facfe"></stop></linearGradient><filter id="42443b3f1de60f6b6fd3b6a9844b4764" filterUnits="userSpaceOnUse"><feColorMatrix type="matrix" values="0 0 0 0 0.99609375  0 0 0 0 0.99609375  0 0 0 0 0.99609375  0 0 0 1 0"></feColorMatrix></filter></defs><mask v-gra="im" id="8bd1ed03-f29f-42a4-9284-47985f6c6b5f"><g class="iconsvg-imagesvg" filter="url(#3e102d59-19b0-44ee-a68c-bc146676fee7)"><g><rect fill="#00c9ff" fill-opacity="0" stroke-width="2" x="0" y="0" width="279.6000000000002" height="218.43750000000014" class="image-rect"></rect> <svg x="0" y="0" width="279.6000000000002" height="218.43750000000014" filtersec="colorsf4217644396" class="image-svg-svg primary" style="overflow: visible;"><svg xmlns="http://www.w3.org/2000/svg" data-name="Layer 1" viewBox="-0.00008227439684560522 14.00001335144043 128.0000762939453 99.9999771118164" x="0px" y="0px"><title>miscellaneous101 expandline</title><path d="M127.76367,51.85365a1.99829,1.99829,0,0,0-1.22021-.98177A62.64647,62.64647,0,0,0,102.82379,49.542a65.46211,65.46211,0,0,0-.02692-25.00421,1.99967,1.99967,0,0,0-2.48291-1.48786A64.16524,64.16524,0,0,0,78.01385,35.15368,65.12777,65.12777,0,0,0,65.44482,14.592a2.05914,2.05914,0,0,0-2.88965,0,65.12777,65.12777,0,0,0-12.569,20.56169A64.1647,64.1647,0,0,0,27.686,23.04992a1.99967,1.99967,0,0,0-2.48291,1.48786,65.46209,65.46209,0,0,0-.02673,25.00513,62.66171,62.66171,0,0,0-23.71985,1.329A2.00055,2.00055,0,0,0,.09766,53.41476c.27783.8567,7.00293,21.10575,24.08057,30.32473,7.63818,4.12346,15.94238,5.283,22.86816,5.283a61.977,61.977,0,0,0,15.49707-1.90788,5.48508,5.48508,0,0,1,2.91309,0,61.965,61.965,0,0,0,15.49707,1.90788c6.9248,0,15.231-1.15958,22.86816-5.283,17.07764-9.219,23.80273-29.468,24.08057-30.32473A2.00176,2.00176,0,0,0,127.76367,51.85365ZM99.27734,27.59834a62.52053,62.52053,0,0,1-.75623,22.76806,40.66245,40.66245,0,0,0-18.5564,9.73911A41.73334,41.73334,0,0,0,81,50.98718a43.81285,43.81285,0,0,0-1.63721-11.63454A61.20773,61.20773,0,0,1,99.27734,27.59834Zm-70.55469,0a61.20773,61.20773,0,0,1,19.91455,11.7543A43.81285,43.81285,0,0,0,47,50.98718a41.90643,41.90643,0,0,0,1.024,9.11058A41.99971,41.99971,0,0,0,39.82178,54.247,42.186,42.186,0,0,0,29.47906,50.3672,62.52032,62.52032,0,0,1,28.72266,27.59834Zm-2.645,52.6204C13.46045,73.40688,6.81152,59.46856,4.67773,54.22946a59.70711,59.70711,0,0,1,21.55505-.429A43.58342,43.58342,0,0,0,30.521,63.72c6.62946,11.1489,17.78381,17.52866,24.971,20.68213C48.46515,85.36268,36.43829,85.81023,26.07764,80.21874ZM33.9585,61.67437a38.02878,38.02878,0,0,1-3.15576-6.80631,36.84563,36.84563,0,0,1,7.11963,2.89972A42.35511,42.35511,0,0,1,51.12708,69.413a60.67882,60.67882,0,0,0,6.93274,11.70113C51.45117,78.31673,40.27686,72.3,33.9585,61.67437ZM61.66663,79.201C57.40021,73.63273,51,63.24452,51,50.98718a38.28587,38.28587,0,0,1,.938-8.26511,37.536,37.536,0,0,1,4.10345,5.58055C62.44434,59.06966,62.3606,72.05862,61.66663,79.201ZM64,57.01266A43.92265,43.92265,0,0,0,59.479,46.257a43.11266,43.11266,0,0,0-6.27576-8.094A62.56992,62.56992,0,0,1,64.002,19.02028,62.29585,62.29585,0,0,1,74.80127,38.15839,43.11331,43.11331,0,0,0,68.521,46.257,43.92265,43.92265,0,0,0,64,57.01266Zm7.9585-8.71a37.53862,37.53862,0,0,1,4.10626-5.58385A38.39289,38.39289,0,0,1,77,50.98718a41.05678,41.05678,0,0,1-3.67291,16.42A65.86936,65.86936,0,0,0,66.324,79.10738C65.63867,71.94521,65.58411,59.02187,71.9585,48.30263Zm18.11914,9.46516a36.73916,36.73916,0,0,1,7.11871-2.8971,38.02228,38.02228,0,0,1-3.15485,6.80368C87.681,72.37078,76.3996,78.397,69.80884,81.16963,72.73553,74.85244,79.17407,63.65452,90.07764,57.76779Zm11.84473,22.451C91.58734,85.79655,79.55273,85.355,72.51727,84.398,79.70483,81.24312,90.85236,74.86422,97.479,63.72a43.57945,43.57945,0,0,0,4.28668-9.91405,59.95733,59.95733,0,0,1,21.55511.42643C121.18652,59.47344,114.5376,73.40786,101.92236,80.21874Z"></path><path d="M109.01318,90.00333a2.00034,2.00034,0,0,0-.20312,3.99552c1.86133.09473,6.18994.68866,6.18994,4.15471,0,4.59726-17.37549,11.32024-45.67334,11.82334-1.87891.03418-8.12793.03907-9.5166.01856C30.80811,109.5871,13,102.82309,13,98.15356c0-3.46606,4.32861-4.06,6.18994-4.15471a2.00034,2.00034,0,0,0-.20312-3.99552C12.82666,90.31592,9,93.43905,9,98.15356c0,9.93206,25.53223,15.48765,50.75391,15.84327.60352.00781,8.50928.001,9.644-.01856C94.04688,113.53867,119,107.96257,119,98.15356,119,93.43905,115.17334,90.31592,109.01318,90.00333Z"></path><path d="M38.668,96.00049a2.00075,2.00075,0,0,0-.17969-3.99747C33.70459,92.21891,32,94.7657,32,97.078c0,8.31339,26.55908,8.88388,29.58887,8.922.32178.00391,1.04932.00586,1.88379.00586,1.32568,0,2.92236-.00488,3.59375-.01563C70.02783,105.94329,96,105.29761,96,97.078c0-2.31227-1.70459-4.85906-6.48828-5.075a2.00075,2.00075,0,0,0-.17969,3.99747c1.32568.05958,2.668.44938,2.68164.98275-.54346,1.36572-8.51221,4.74674-25.01025,5.00562-1.04346.01758-4.57275.02051-5.36621.00977C45.81836,101.80225,36.66553,98.67619,36,97.078,36,96.44987,37.34229,96.06006,38.668,96.00049Z"></path><path d="M74,94.00178a2.00008,2.00008,0,0,0-3.80859-.85481A17.63879,17.63879,0,0,1,64,94.00178a17.63879,17.63879,0,0,1-6.19141-.85481A2.00008,2.00008,0,0,0,54,94.00178c0,3.48162,6.26514,4.00132,10,4.00132S74,97.4834,74,94.00178Z"></path></svg></svg> <defs><filter id="colors4641392184"><feColorMatrix type="matrix" values="0 0 0 0 0  0 0 0 0 0.78515625  0 0 0 0 0.99609375  0 0 0 1 0" class="icon-fecolormatrix"></feColorMatrix></filter> <filter id="colorsf4217644396"><feColorMatrix type="matrix" values="0 0 0 0 0.99609375  0 0 0 0 0.99609375  0 0 0 0 0.99609375  0 0 0 1 0" class="icon-fecolormatrix"></feColorMatrix></filter> <filter id="colorsb2393678577"><feColorMatrix type="matrix" values="0 0 0 0 0  0 0 0 0 0  0 0 0 0 0  0 0 0 1 0" class="icon-fecolormatrix"></feColorMatrix></filter></defs></g></g></mask></svg>
