<svg data-v-2cb57da0="" version="1.0" xmlns="http://www.w3.org/2000/svg" xmlns:xlink="http://www.w3.org/1999/xlink" width="100%" height="100%" viewBox="0 0 340.000000 250.000000" preserveAspectRatio="xMidYMid meet" color-interpolation-filters="sRGB" style="margin: auto;"><rect data-v-2cb57da0="" x="0" y="0" width="100%" height="100%" fill="#ffffff" fill-opacity="0" class="background"></rect> <rect data-v-2cb57da0="" x="0" y="0" width="100%" height="100%" fill="url(#watermark)" fill-opacity="1" class="watermarklayer"></rect> <g data-v-2cb57da0="" class="iconmbgsvg" transform="translate(77.74999237060547,13.804512023925781)"><g fill="#000000" hollow-target="textNormalTran"><g opacity="1" mask="url(#4fb5805d-11ec-4e9b-ae5e-51559f2a457e)" transform="matrix(1,0,0,1,0,0)"><g><rect fill="#000000" fill-opacity="0" stroke-width="2" x="0" y="0" width="184.50000000000006" height="222.3909741809504" class="image-rect"></rect> <svg filter="url(#colors1561758045)" x="0" y="0" width="184.50000000000006" height="222.3909741809504" filtersec="colorsf3920044450" class="image-svg-svg primary" style="overflow: visible;"><svg xmlns="http://www.w3.org/2000/svg" xmlns:xlink="http://www.w3.org/1999/xlink" version="1.1" x="0px" y="0px" viewBox="12.672832489013672 5 74.66606140136719 90" xml:space="preserve"><path d="M31.6439457,67.7742615c-1.3000603-8.3767891,0.4349461-12.4805794,2.1125965-16.449585  c1.4783401-3.4963036,2.8744736-6.7990303,1.858799-12.3840294c-1.6986809-9.3456154-13.8948689-14.6782513-14.412981-14.9005032  l-2.1637383-0.9277267l0.867981,2.1885929c0.059267,0.1500816,5.8435783,15.1385307-2.7597599,27.894413  c-4.4527063,6.6025848-5.5888243,12.9040489-3.376811,18.7323341c2.3186007,6.1102829,8.1832094,11.5160446,17.4313202,16.0700836  c6.8076324,3.3514786,12.8538666,4.9258881,13.107666,4.9918442l5.1648674,1.328743l-4.3566322-3.0771332  C45.0068436,91.1629105,34.0471458,83.2631378,31.6439457,67.7742615z"></path><path d="M59.3529091,69.1249847c3.1469078-3.8925323,7.3319588-5.1103821,11.3793449-6.2880859  c5.5673218-1.6202965,11.3239059-3.2950783,13.5770264-11.8855133c1.5983124-6.0892525-0.4397278-12.7305489-5.8932877-19.20504  c-4.0464325-4.8054428-8.4886246-7.8037071-8.6750336-7.9289322l-3.1268311-2.0930023l1.7101517,3.3514786  c2.1661301,4.2457485,2.4557724,9.0640945,0.7962875,13.2185516c-1.9118576,4.7848892-6.2833061,8.4991417-12.644043,10.7422256  c-7.8940392,2.7831764-21.107811,7.4423637-20.0309601,23.4981079c1.0371819,15.4726257,15.0620575,21.57621,15.2035332,21.6354828  L53.6154366,95l-0.6538544-2.0332565C52.9252586,92.8529892,49.4098396,81.4258423,59.3529091,69.1249847z"></path><path d="M42.217926,54.0538445l0.8675041-1.8439827c0.0105133-0.0229416,1.0639458-2.2488174,2.1680412-3.5345383  c1.384182-1.612648,3.8590736-2.6268845,6.4787903-3.7013474c4.2653465-1.748867,9.0994644-3.7309799,11.4586906-8.9603767  c2.7444649-6.0801697,2.6765938-13.119133-0.1969185-20.3550186c-2.1517906-5.4172354-5.0740585-9.0019588-5.1973724-9.1520395  L56.5539551,5l-0.4645805,1.8984699c-0.0172043,0.0688267-1.7933159,6.9620123-11.1116867,13.7323627  c-13.9527054,10.1371212-3.7615738,31.3792419-3.6568985,31.5933685L42.217926,54.0538445z"></path><path d="M86.5260773,59.1632729l-0.9062195-3.704216l-0.9903412,3.6841393  c-0.0172043,0.0611801-1.7015457,6.1188889-7.0021591,7.7238846c-1.0027695,0.3039856-2.172821,0.4578934-3.4107513,0.6203995  c-3.6927414,0.4846573-8.2878799,1.0887985-13.3877487,5.9238739c-9.5028648,9.0115204-6.9553185,18.4512939-6.8425217,18.8480072  l0.4932594,1.7340469l1.1853485-1.3583679c0.0334587-0.0372849,3.7070847-3.8619461,18.565052-7.1350403  c4.5148392-0.9941635,7.9303589-3.3055878,10.1509781-6.8692856C89.2820129,70.7643967,86.6407852,59.6335869,86.5260773,59.1632729  z"></path></svg></svg> <defs><filter id="colors1561758045"><feColorMatrix type="matrix" values="0 0 0 0 0  0 0 0 0 0.38671875  0 0 0 0 0.859375  0 0 0 1 0" class="icon-fecolormatrix"></feColorMatrix></filter> <filter id="colorsf3920044450"><feColorMatrix type="matrix" values="0 0 0 0 0.99609375  0 0 0 0 0.99609375  0 0 0 0 0.99609375  0 0 0 1 0" class="icon-fecolormatrix"></feColorMatrix></filter> <filter id="colorsb2100878313"><feColorMatrix type="matrix" values="0 0 0 0 0  0 0 0 0 0  0 0 0 0 0  0 0 0 1 0" class="icon-fecolormatrix"></feColorMatrix></filter></defs></g><rect v-gra="id" width="196.50001525878906" height="234.39097595214844" transform="translate(-6, -6)" style="pointer-events:none;" fill="url(#X4ylw9leoVaos8MeypD1p)"></rect></g> <g transform="translate(92.25000762939453,111.19548797607422)"><g data-gra="path-name" fill-rule="" class="tp-name" opacity="1" transform="matrix(1,0,0,1,0,0)"><g transform="scale(1)"><g><path d="" transform="translate(0, 0)"></path></g> <!----> <!----> <!----> <!----> <!----> <!----> <!----></g></g> <!----></g></g></g><defs v-gra="od"></defs><defs v-gra="id"><filter id="24ff63f8-a9e2-40e9-8fba-b0388ff5b233" filterUnits="userSpaceOnUse"><feColorMatrix type="matrix" values="0 0 0 0 0.99609375  0 0 0 0 0.99609375  0 0 0 0 0.99609375  0 0 0 1 0"></feColorMatrix></filter><linearGradient x1="0" y1="1" x2="0" y2="0" id="X4ylw9leoVaos8MeypD1p"><stop offset="0%" stop-color="#4481eb"></stop><stop offset="100%" stop-color="#05befe"></stop></linearGradient><filter id="42443b3f1de60f6b6fd3b6a9844b4764" filterUnits="userSpaceOnUse"><feColorMatrix type="matrix" values="0 0 0 0 0.99609375  0 0 0 0 0.99609375  0 0 0 0 0.99609375  0 0 0 1 0"></feColorMatrix></filter></defs><mask v-gra="im" id="4fb5805d-11ec-4e9b-ae5e-51559f2a457e"><g opacity="0.55" filter="url(#24ff63f8-a9e2-40e9-8fba-b0388ff5b233)"><g><rect fill="#000000" fill-opacity="0" stroke-width="2" x="0" y="0" width="184.50000000000006" height="222.3909741809504" class="image-rect"></rect> <svg x="0" y="0" width="184.50000000000006" height="222.3909741809504" filtersec="colorsf3920044450" class="image-svg-svg primary" style="overflow: visible;"><svg xmlns="http://www.w3.org/2000/svg" xmlns:xlink="http://www.w3.org/1999/xlink" version="1.1" x="0px" y="0px" viewBox="12.672832489013672 5 74.66606140136719 90" xml:space="preserve"><path d="M31.6439457,67.7742615c-1.3000603-8.3767891,0.4349461-12.4805794,2.1125965-16.449585  c1.4783401-3.4963036,2.8744736-6.7990303,1.858799-12.3840294c-1.6986809-9.3456154-13.8948689-14.6782513-14.412981-14.9005032  l-2.1637383-0.9277267l0.867981,2.1885929c0.059267,0.1500816,5.8435783,15.1385307-2.7597599,27.894413  c-4.4527063,6.6025848-5.5888243,12.9040489-3.376811,18.7323341c2.3186007,6.1102829,8.1832094,11.5160446,17.4313202,16.0700836  c6.8076324,3.3514786,12.8538666,4.9258881,13.107666,4.9918442l5.1648674,1.328743l-4.3566322-3.0771332  C45.0068436,91.1629105,34.0471458,83.2631378,31.6439457,67.7742615z"></path><path d="M59.3529091,69.1249847c3.1469078-3.8925323,7.3319588-5.1103821,11.3793449-6.2880859  c5.5673218-1.6202965,11.3239059-3.2950783,13.5770264-11.8855133c1.5983124-6.0892525-0.4397278-12.7305489-5.8932877-19.20504  c-4.0464325-4.8054428-8.4886246-7.8037071-8.6750336-7.9289322l-3.1268311-2.0930023l1.7101517,3.3514786  c2.1661301,4.2457485,2.4557724,9.0640945,0.7962875,13.2185516c-1.9118576,4.7848892-6.2833061,8.4991417-12.644043,10.7422256  c-7.8940392,2.7831764-21.107811,7.4423637-20.0309601,23.4981079c1.0371819,15.4726257,15.0620575,21.57621,15.2035332,21.6354828  L53.6154366,95l-0.6538544-2.0332565C52.9252586,92.8529892,49.4098396,81.4258423,59.3529091,69.1249847z"></path><path d="M42.217926,54.0538445l0.8675041-1.8439827c0.0105133-0.0229416,1.0639458-2.2488174,2.1680412-3.5345383  c1.384182-1.612648,3.8590736-2.6268845,6.4787903-3.7013474c4.2653465-1.748867,9.0994644-3.7309799,11.4586906-8.9603767  c2.7444649-6.0801697,2.6765938-13.119133-0.1969185-20.3550186c-2.1517906-5.4172354-5.0740585-9.0019588-5.1973724-9.1520395  L56.5539551,5l-0.4645805,1.8984699c-0.0172043,0.0688267-1.7933159,6.9620123-11.1116867,13.7323627  c-13.9527054,10.1371212-3.7615738,31.3792419-3.6568985,31.5933685L42.217926,54.0538445z"></path><path d="M86.5260773,59.1632729l-0.9062195-3.704216l-0.9903412,3.6841393  c-0.0172043,0.0611801-1.7015457,6.1188889-7.0021591,7.7238846c-1.0027695,0.3039856-2.172821,0.4578934-3.4107513,0.6203995  c-3.6927414,0.4846573-8.2878799,1.0887985-13.3877487,5.9238739c-9.5028648,9.0115204-6.9553185,18.4512939-6.8425217,18.8480072  l0.4932594,1.7340469l1.1853485-1.3583679c0.0334587-0.0372849,3.7070847-3.8619461,18.565052-7.1350403  c4.5148392-0.9941635,7.9303589-3.3055878,10.1509781-6.8692856C89.2820129,70.7643967,86.6407852,59.6335869,86.5260773,59.1632729  z"></path></svg></svg> <defs><filter id="colors1561758045"><feColorMatrix type="matrix" values="0 0 0 0 0  0 0 0 0 0.38671875  0 0 0 0 0.859375  0 0 0 1 0" class="icon-fecolormatrix"></feColorMatrix></filter> <filter id="colorsf3920044450"><feColorMatrix type="matrix" values="0 0 0 0 0.99609375  0 0 0 0 0.99609375  0 0 0 0 0.99609375  0 0 0 1 0" class="icon-fecolormatrix"></feColorMatrix></filter> <filter id="colorsb2100878313"><feColorMatrix type="matrix" values="0 0 0 0 0  0 0 0 0 0  0 0 0 0 0  0 0 0 1 0" class="icon-fecolormatrix"></feColorMatrix></filter></defs></g></g></mask></svg>
